<svg width="47" height="44" viewBox="0 0 47 44" fill="none" xmlns="http://www.w3.org/2000/svg">
<g clip-path="url(#clip0_20005128_15039)">
<g clip-path="url(#clip1_20005128_15039)">
<g clip-path="url(#clip2_20005128_15039)">
<path d="M10.2 22L4.09998 12.3L23 0L22.5 10.7L10.2 22Z" fill="url(#paint0_linear_20005128_15039)"/>
<path d="M22.5 10.7L23 0L42.4 8.7L38.2999 26.1L12.2 30.2L10.2 22L22.5 10.7Z" fill="url(#paint1_linear_20005128_15039)"/>
<path d="M31.2001 44.0001L12.3 30.2001L38.4001 26.1001L43 30.7001L31.2001 44.0001Z" fill="url(#paint2_linear_20005128_15039)"/>
<path d="M38.3 26.1L42.9001 30.7L47 17.9L42.4001 8.69995L38.3 26.1Z" fill="url(#paint3_linear_20005128_15039)"/>
<path d="M12.3 30.2001L31.2 44.0001L12.3 41.4001L0 26.6001L12.3 30.2001Z" fill="url(#paint4_linear_20005128_15039)"/>
<path d="M4.1 12.3L0 26.6L12.3 30.2001L10.3 22L4.1 12.3Z" fill="url(#paint5_linear_20005128_15039)"/>
<path d="M31.2001 44.0001L12.3 30.2001L38.4001 26.1001L43 30.7001L31.2001 44.0001Z" fill="black" fill-opacity="0.17"/>
<path d="M38.3 26.1L42.9001 30.7L47 17.9L42.4001 8.69995L38.3 26.1Z" fill="black" fill-opacity="0.1"/>
<path d="M12.3 30.2001L31.2 44.0001L12.3 41.4001L0 26.6001L12.3 30.2001Z" fill="black" fill-opacity="0.23"/>
<path d="M4.1 12.3L0 26.6L12.3 30.2001L10.3 22L4.1 12.3Z" fill="#C0C0C0" fill-opacity="0.05"/>
<path d="M10.2 22L4.09998 12.3L23 0L22.5 10.7L10.2 22Z" fill="white" fill-opacity="0.15"/>
<path fill-rule="evenodd" clip-rule="evenodd" d="M10.2 22L22.5 10.7L23 0L4.09998 12.3L10.2 22ZM10.3 21.5L22.2 10.6L22.7 0.6L4.49998 12.4L10.3 21.5Z" fill="white" fill-opacity="0.15"/>
<path fill-rule="evenodd" clip-rule="evenodd" d="M22.8 10.9L10.6 22.1L12.5 29.8L38.0999 25.8L42.0999 8.9L23.3 0.5L22.8 10.9ZM22.5 10.7L10.2 22L12.2 30.2L38.2999 26.1L42.4 8.7L23 0L22.5 10.7Z" fill="white" fill-opacity="0.15"/>
<path fill-rule="evenodd" clip-rule="evenodd" d="M31.1 43.6001L42.5 30.7001L38.2 26.4001L13 30.4001L31.1 43.6001ZM31.2 44.0001L42.9 30.7001L38.2999 26.1001L12.2 30.2001L31.2 44.0001Z" fill="white" fill-opacity="0.15"/>
<path fill-rule="evenodd" clip-rule="evenodd" d="M42.9001 30.7L47 17.9L42.4001 8.69995L38.3 26.1L42.9001 30.7ZM38.7001 26L42.8 30.1L46.7001 17.9L42.5 9.59995L38.7001 26Z" fill="white" fill-opacity="0.15"/>
<path fill-rule="evenodd" clip-rule="evenodd" d="M12.1 30.5001L0.9 27.2001L12.4 41.2001L30 43.5001L12.1 30.5001ZM12.3 30.2001L0 26.6001L12.3 41.4001L31.2 44.0001L12.3 30.2001Z" fill="white" fill-opacity="0.15"/>
<path fill-rule="evenodd" clip-rule="evenodd" d="M0.4 26.4L11.9 29.7001L10 22.1L4.2 13L0.4 26.4ZM0 26.6L12.3 30.2001L10.3 22L4.2 12.3L0 26.6Z" fill="white" fill-opacity="0.15"/>
<path d="M23.7 19H27.2C27.1 15.9 24.6 13.8 20.8 13.8C17 13.8 14.3 15.9 14.3 19C14.3 21.5 16.1 23 19 23.7L20.9 24.2C22.8 24.7 23.8 25.2 23.8 26.3C23.8 27.6 22.6 28.4 20.8 28.4C18.9 28.4 17.6 27.5 17.4 25.8H13.9C14 29.5 16.6 31.4 20.8 31.4C25 31.4 27.4 29.4 27.4 26.3C27.4 23.4 25.2 21.9 22.3 21.3L20.8 20.9C19.2 20.6 18 20 18 18.8C18 17.7 19 16.9 20.7 16.9C22.5 16.9 23.6 17.7 23.7 19Z" fill="white"/>
<path d="M32.5 19.3H29.3V31.2001H32.5V19.3Z" fill="white"/>
<path d="M31.3 9.8999H30.1L28.6 10.7999V11.9999L30 11.0999V15.8999H31.3V9.8999Z" fill="white"/>
<path d="M32.7 14.7999H35.5999V15.7999H36.7999V14.7999H37.5V13.7999H36.7999V9.8999H35.2L32.7 13.7999V14.7999ZM35.5999 13.7999H34L35.5999 11.2999V13.7999Z" fill="white"/>
</g>
</g>
</g>
<defs>
<linearGradient id="paint0_linear_20005128_15039" x1="-2.43962e-05" y1="11" x2="47" y2="11" gradientUnits="userSpaceOnUse">
<stop stop-color="#6366F1"/>
<stop offset="0.5" stop-color="#8B5CF6"/>
<stop offset="1" stop-color="#D946EF"/>
</linearGradient>
<linearGradient id="paint1_linear_20005128_15039" x1="-4.86304e-05" y1="15.1" x2="47" y2="15.1" gradientUnits="userSpaceOnUse">
<stop stop-color="#6366F1"/>
<stop offset="0.5" stop-color="#8B5CF6"/>
<stop offset="1" stop-color="#D946EF"/>
</linearGradient>
<linearGradient id="paint2_linear_20005128_15039" x1="4.91977e-05" y1="35.0501" x2="47" y2="35.0501" gradientUnits="userSpaceOnUse">
<stop stop-color="#6366F1"/>
<stop offset="0.5" stop-color="#8B5CF6"/>
<stop offset="1" stop-color="#D946EF"/>
</linearGradient>
<linearGradient id="paint3_linear_20005128_15039" x1="4.58639e-05" y1="19.7" x2="47.0001" y2="19.7" gradientUnits="userSpaceOnUse">
<stop stop-color="#6366F1"/>
<stop offset="0.5" stop-color="#8B5CF6"/>
<stop offset="1" stop-color="#D946EF"/>
</linearGradient>
<linearGradient id="paint4_linear_20005128_15039" x1="0" y1="35.3001" x2="47" y2="35.3001" gradientUnits="userSpaceOnUse">
<stop stop-color="#6366F1"/>
<stop offset="0.5" stop-color="#8B5CF6"/>
<stop offset="1" stop-color="#D946EF"/>
</linearGradient>
<linearGradient id="paint5_linear_20005128_15039" x1="0" y1="21.2501" x2="47" y2="21.2501" gradientUnits="userSpaceOnUse">
<stop stop-color="#6366F1"/>
<stop offset="0.5" stop-color="#8B5CF6"/>
<stop offset="1" stop-color="#D946EF"/>
</linearGradient>
<clipPath id="clip0_20005128_15039">
<rect width="47" height="44" fill="white"/>
</clipPath>
<clipPath id="clip1_20005128_15039">
<rect width="47" height="44" fill="white"/>
</clipPath>
<clipPath id="clip2_20005128_15039">
<rect width="47" height="44" fill="white"/>
</clipPath>
</defs>
</svg>
